<svg id="svg" version="1.1" xmlns="http://www.w3.org/2000/svg" xmlns:xlink="http://www.w3.org/1999/xlink" width="400" height="345.45454545454544" viewBox="0, 0, 400,345.45454545454544"><g id="svgg"><path id="path0" d="M236.906 1.285 C 237.429 1.364,238.284 1.364,238.807 1.285 C 239.330 1.206,238.902 1.141,237.857 1.141 C 236.811 1.141,236.383 1.206,236.906 1.285 M251.772 1.285 C 252.295 1.364,253.150 1.364,253.673 1.285 C 254.196 1.206,253.768 1.141,252.723 1.141 C 251.677 1.141,251.249 1.206,251.772 1.285 M228.268 1.977 C 228.793 2.056,229.571 2.054,229.996 1.972 C 230.421 1.890,229.991 1.825,229.041 1.827 C 228.090 1.830,227.742 1.897,228.268 1.977 M260.588 1.973 C 261.016 2.055,261.716 2.055,262.143 1.973 C 262.571 1.890,262.221 1.823,261.366 1.823 C 260.510 1.823,260.160 1.890,260.588 1.973 M263.872 2.313 C 264.205 2.400,264.749 2.400,265.082 2.313 C 265.415 2.226,265.143 2.155,264.477 2.155 C 263.812 2.155,263.539 2.226,263.872 2.313 M271.564 3.457 C 273.027 3.829,274.282 3.829,273.120 3.457 C 272.645 3.305,271.867 3.183,271.392 3.187 C 270.615 3.193,270.633 3.220,271.564 3.457 M289.369 7.548 C 289.654 7.724,290.277 7.972,290.752 8.099 C 291.353 8.260,291.458 8.233,291.098 8.010 C 290.812 7.834,290.190 7.585,289.715 7.458 C 289.114 7.298,289.009 7.325,289.369 7.548 M195.506 9.174 C 194.641 9.590,194.612 9.638,195.333 9.462 C 196.312 9.223,197.413 8.661,196.889 8.669 C 196.698 8.672,196.076 8.899,195.506 9.174 M293.518 8.930 C 293.803 9.107,294.425 9.355,294.901 9.482 C 295.501 9.643,295.607 9.615,295.246 9.393 C 294.961 9.217,294.339 8.968,293.863 8.841 C 293.263 8.681,293.157 8.708,293.518 8.930 M191.703 10.557 C 190.838 10.973,190.809 11.021,191.530 10.845 C 192.509 10.606,193.611 10.044,193.086 10.052 C 192.895 10.055,192.273 10.282,191.703 10.557 M308.729 15.039 C 309.205 15.311,309.749 15.533,309.939 15.533 C 310.130 15.533,309.896 15.311,309.421 15.039 C 308.946 14.767,308.401 14.545,308.211 14.545 C 308.021 14.545,308.254 14.767,308.729 15.039 M316.681 18.824 C 316.681 18.919,317.148 19.238,317.718 19.533 C 318.289 19.828,318.755 19.992,318.755 19.897 C 318.755 19.802,318.289 19.483,317.718 19.188 C 317.148 18.893,316.681 18.729,316.681 18.824 M145.700 37.770 L 144.685 38.894 145.808 37.878 C 146.855 36.932,147.091 36.646,146.824 36.646 C 146.764 36.646,146.258 37.152,145.700 37.770 M346.759 39.931 C 347.404 40.596,348.009 41.141,348.105 41.141 C 348.200 41.141,347.750 40.596,347.105 39.931 C 346.460 39.265,345.854 38.721,345.759 38.721 C 345.664 38.721,346.114 39.265,346.759 39.931 M142.764 40.363 L 141.573 41.659 142.869 40.468 C 143.583 39.813,144.166 39.229,144.166 39.172 C 144.166 38.908,143.873 39.156,142.764 40.363 M352.982 45.808 C 355.162 47.995,357.024 49.784,357.119 49.784 C 357.214 49.784,355.508 47.995,353.328 45.808 C 351.147 43.621,349.285 41.832,349.190 41.832 C 349.095 41.832,350.801 43.621,352.982 45.808 M136.725 46.067 L 133.967 48.920 136.819 46.162 C 139.468 43.601,139.829 43.215,139.577 43.215 C 139.525 43.215,138.242 44.499,136.725 46.067 M131.356 51.772 L 130.164 53.068 131.461 51.877 C 132.174 51.222,132.757 50.638,132.757 50.580 C 132.757 50.316,132.465 50.565,131.356 51.772 M359.205 52.377 C 359.850 53.042,360.455 53.587,360.551 53.587 C 360.646 53.587,360.196 53.042,359.551 52.377 C 358.906 51.711,358.300 51.167,358.205 51.167 C 358.110 51.167,358.560 51.711,359.205 52.377 M367.502 62.576 C 367.908 63.146,368.318 63.613,368.414 63.613 C 368.509 63.613,368.254 63.146,367.848 62.576 C 367.442 62.005,367.032 61.538,366.936 61.538 C 366.841 61.538,367.096 62.005,367.502 62.576 M121.694 63.613 C 121.288 64.183,121.033 64.650,121.128 64.650 C 121.223 64.650,121.634 64.183,122.040 63.613 C 122.446 63.042,122.700 62.576,122.605 62.576 C 122.510 62.576,122.100 63.042,121.694 63.613 M110.112 81.936 C 109.817 82.506,109.654 82.973,109.749 82.973 C 109.844 82.973,110.163 82.506,110.458 81.936 C 110.753 81.366,110.917 80.899,110.822 80.899 C 110.726 80.899,110.407 81.366,110.112 81.936 M387.406 98.185 C 387.534 98.660,387.782 99.283,387.958 99.568 C 388.181 99.928,388.208 99.823,388.047 99.222 C 387.920 98.747,387.672 98.124,387.496 97.839 C 387.273 97.479,387.246 97.584,387.406 98.185 M98.728 109.446 C 98.601 109.952,98.564 110.433,98.645 110.515 C 98.727 110.596,98.897 110.249,99.025 109.742 C 99.152 109.235,99.189 108.754,99.108 108.673 C 99.026 108.591,98.855 108.939,98.728 109.446 M393.144 115.817 C 393.162 116.715,393.706 118.190,393.718 117.373 C 393.724 116.992,393.595 116.370,393.431 115.990 C 393.249 115.566,393.138 115.499,393.144 115.817 M94.244 128.643 C 94.117 129.435,94.081 130.151,94.163 130.234 C 94.246 130.316,94.422 129.740,94.555 128.954 C 94.688 128.168,94.724 127.452,94.635 127.364 C 94.547 127.275,94.370 127.851,94.244 128.643 M93.093 138.634 C 93.093 139.490,93.161 139.840,93.243 139.412 C 93.326 138.984,93.326 138.284,93.243 137.857 C 93.161 137.429,93.093 137.779,93.093 138.634 M397.314 140.017 C 397.314 140.683,397.386 140.955,397.473 140.622 C 397.559 140.290,397.559 139.745,397.473 139.412 C 397.386 139.080,397.314 139.352,397.314 140.017 M92.764 140.878 C 92.805 141.281,93.119 141.594,93.522 141.636 C 94.020 141.687,94.049 141.658,93.625 141.532 C 93.304 141.436,92.963 141.095,92.867 140.774 C 92.741 140.351,92.713 140.379,92.764 140.878 M96.889 141.293 C 97.221 141.380,97.766 141.380,98.099 141.293 C 98.431 141.206,98.159 141.135,97.494 141.135 C 96.828 141.135,96.556 141.206,96.889 141.293 M110.894 141.299 C 111.324 141.382,111.947 141.379,112.277 141.292 C 112.608 141.205,112.256 141.138,111.495 141.142 C 110.735 141.145,110.464 141.216,110.894 141.299 M115.212 141.638 C 115.545 141.725,116.089 141.725,116.422 141.638 C 116.755 141.552,116.482 141.480,115.817 141.480 C 115.151 141.480,114.879 141.552,115.212 141.638 M117.978 141.984 C 118.310 142.071,118.855 142.071,119.188 141.984 C 119.520 141.897,119.248 141.826,118.583 141.826 C 117.917 141.826,117.645 141.897,117.978 141.984 M397.693 144.339 C 397.695 145.670,397.757 146.172,397.832 145.455 C 397.907 144.737,397.906 143.648,397.829 143.035 C 397.753 142.421,397.692 143.008,397.693 144.339 M126.534 143.475 C 127.716 143.853,128.625 143.853,127.744 143.475 C 127.364 143.311,126.742 143.182,126.361 143.188 C 125.805 143.196,125.839 143.252,126.534 143.475 M398.069 154.365 C 398.069 157.787,398.121 159.141,398.183 157.372 C 398.246 155.604,398.246 152.803,398.183 151.149 C 398.120 149.495,398.068 150.942,398.069 154.365 M91.098 149.356 C 89.196 149.524,86.940 149.822,86.085 150.017 C 85.229 150.213,83.440 150.549,82.109 150.764 C 77.695 151.477,67.449 154.411,64.131 155.912 C 63.751 156.084,62.172 156.768,60.623 157.433 C 39.974 166.287,22.445 182.911,12.224 203.331 C 11.015 205.746,10.026 207.808,10.026 207.913 C 10.026 208.018,9.652 208.925,9.195 209.929 C -6.398 244.169,4.130 291.780,33.005 317.609 C 34.533 318.975,36.404 320.646,37.165 321.322 C 41.590 325.253,53.045 332.428,59.810 335.504 C 65.552 338.115,74.353 341.091,78.765 341.913 C 79.778 342.102,80.736 342.337,80.895 342.435 C 82.814 343.621,108.655 345.174,110.234 344.198 C 110.381 344.107,112.436 343.784,114.801 343.481 C 149.167 339.069,180.890 314.334,193.068 282.455 C 193.758 280.648,194.458 278.859,194.624 278.479 C 198.490 269.598,200.837 249.620,199.527 236.746 C 198.649 228.120,195.711 216.393,192.897 210.289 C 192.525 209.483,192.221 208.741,192.221 208.640 C 192.221 208.150,189.124 201.980,187.103 198.444 C 179.577 185.280,169.043 174.067,156.439 165.807 C 152.764 163.399,151.795 162.793,150.562 162.133 C 149.991 161.828,148.202 160.870,146.586 160.004 C 144.970 159.138,142.481 157.931,141.054 157.321 C 139.628 156.712,137.995 156.008,137.424 155.758 C 132.477 153.585,122.601 151.047,113.742 149.673 C 110.881 149.229,95.040 149.007,91.098 149.356 M147.623 150.562 C 148.099 150.834,148.643 151.056,148.833 151.056 C 149.023 151.056,148.790 150.834,148.315 150.562 C 147.839 150.290,147.295 150.068,147.105 150.068 C 146.914 150.068,147.148 150.290,147.623 150.562 M397.693 164.045 C 397.695 165.376,397.757 165.878,397.832 165.161 C 397.907 164.444,397.906 163.355,397.829 162.741 C 397.753 162.127,397.692 162.714,397.693 164.045 M172.169 166.055 C 172.169 166.114,172.675 166.620,173.293 167.178 L 174.417 168.194 173.401 167.070 C 172.455 166.023,172.169 165.788,172.169 166.055 M397.314 168.712 C 397.314 169.378,397.386 169.650,397.473 169.317 C 397.559 168.984,397.559 168.440,397.473 168.107 C 397.386 167.774,397.314 168.047,397.314 168.712 M175.281 168.807 C 175.281 168.860,176.487 170.065,177.960 171.487 L 180.640 174.071 178.055 171.392 C 175.655 168.903,175.281 168.554,175.281 168.807 M396.370 175.972 C 396.236 176.947,396.199 177.818,396.288 177.907 C 396.378 177.997,396.557 177.269,396.687 176.289 C 396.817 175.310,396.853 174.439,396.768 174.354 C 396.683 174.269,396.504 174.997,396.370 175.972 M183.578 177.809 C 183.578 177.869,184.084 178.374,184.702 178.933 L 185.825 179.948 184.810 178.825 C 183.863 177.777,183.578 177.542,183.578 177.809 M199.160 202.420 C 199.160 202.610,199.383 203.155,199.654 203.630 C 199.926 204.105,200.148 204.339,200.148 204.149 C 200.148 203.959,199.926 203.414,199.654 202.939 C 199.383 202.463,199.160 202.230,199.160 202.420 M202.445 210.890 C 202.573 211.366,202.821 211.988,202.997 212.273 C 203.220 212.634,203.247 212.528,203.086 211.927 C 202.959 211.452,202.711 210.830,202.535 210.545 C 202.312 210.184,202.285 210.290,202.445 210.890 M386.153 213.185 C 385.962 213.687,385.870 214.162,385.949 214.240 C 386.027 214.319,386.257 213.908,386.459 213.328 C 386.908 212.038,386.637 211.912,386.153 213.185 M384.844 216.264 C 384.265 217.535,384.376 217.806,385.002 216.651 C 385.294 216.111,385.469 215.605,385.390 215.525 C 385.311 215.446,385.065 215.779,384.844 216.264 M205.417 221.089 C 205.412 221.469,205.541 222.092,205.704 222.472 C 206.083 223.353,206.083 222.444,205.704 221.262 C 205.482 220.567,205.426 220.533,205.417 221.089 M381.850 222.645 C 381.555 223.215,381.391 223.682,381.486 223.682 C 381.581 223.682,381.900 223.215,382.195 222.645 C 382.490 222.074,382.654 221.608,382.559 221.608 C 382.464 221.608,382.145 222.074,381.850 222.645 M206.802 228.003 C 206.791 228.384,206.910 229.317,207.067 230.078 C 207.308 231.240,207.353 231.296,207.352 230.424 C 207.351 229.213,206.835 226.940,206.802 228.003 M207.859 237.857 C 207.859 238.522,207.930 238.794,208.017 238.462 C 208.104 238.129,208.104 237.584,208.017 237.252 C 207.930 236.919,207.859 237.191,207.859 237.857 M207.859 250.994 C 207.859 251.659,207.930 251.932,208.017 251.599 C 208.104 251.266,208.104 250.722,208.017 250.389 C 207.930 250.056,207.859 250.328,207.859 250.994 M359.361 255.920 L 357.995 257.390 359.464 256.023 C 360.272 255.272,360.933 254.610,360.933 254.554 C 360.933 254.292,360.632 254.554,359.361 255.920 M206.943 259.320 C 206.813 260.299,206.777 261.170,206.862 261.255 C 206.947 261.340,207.126 260.612,207.260 259.637 C 207.394 258.662,207.431 257.791,207.342 257.702 C 207.252 257.613,207.073 258.341,206.943 259.320 M354.875 260.761 L 352.118 263.613 354.970 260.855 C 357.619 258.294,357.980 257.908,357.727 257.908 C 357.675 257.908,356.392 259.192,354.875 260.761 M350.030 265.601 L 348.315 267.416 350.130 265.700 C 351.816 264.106,352.103 263.786,351.845 263.786 C 351.791 263.786,350.974 264.602,350.030 265.601 M343.798 271.132 L 342.783 272.256 343.907 271.240 C 344.525 270.682,345.030 270.176,345.030 270.117 C 345.030 269.850,344.745 270.085,343.798 271.132 M204.039 272.837 C 203.833 273.646,203.725 274.367,203.798 274.440 C 203.871 274.513,204.106 273.919,204.322 273.120 C 204.537 272.321,204.645 271.600,204.562 271.517 C 204.480 271.434,204.244 272.028,204.039 272.837 M337.597 276.089 L 336.560 276.980 337.684 276.237 C 338.302 275.828,338.807 275.426,338.807 275.344 C 338.807 275.085,338.661 275.175,337.597 276.089 M202.631 277.307 C 202.418 277.918,202.305 278.479,202.379 278.553 C 202.452 278.626,202.687 278.187,202.900 277.576 C 203.113 276.965,203.227 276.405,203.153 276.331 C 203.079 276.257,202.844 276.696,202.631 277.307 M199.538 285.408 C 198.958 286.679,199.069 286.951,199.695 285.795 C 199.988 285.255,200.162 284.749,200.083 284.670 C 200.004 284.591,199.759 284.923,199.538 285.408 M314.866 290.258 C 313.526 290.985,313.677 291.236,315.039 290.544 C 316.342 289.881,316.573 289.709,316.134 289.729 C 315.959 289.736,315.389 289.975,314.866 290.258 M194.123 296.283 C 193.828 296.854,193.664 297.321,193.759 297.321 C 193.854 297.321,194.173 296.854,194.468 296.283 C 194.763 295.713,194.927 295.246,194.832 295.246 C 194.737 295.246,194.418 295.713,194.123 296.283 M199.309 300.432 C 199.689 300.596,200.233 300.729,200.519 300.729 C 200.845 300.729,200.782 300.619,200.346 300.432 C 199.965 300.269,199.421 300.135,199.136 300.135 C 198.809 300.135,198.873 300.245,199.309 300.432 M204.149 301.815 C 204.529 301.978,205.073 302.112,205.359 302.112 C 205.686 302.112,205.622 302.002,205.186 301.815 C 204.806 301.652,204.261 301.518,203.976 301.518 C 203.649 301.518,203.713 301.628,204.149 301.815 M285.048 301.815 C 284.612 302.002,284.548 302.112,284.875 302.112 C 285.160 302.112,285.704 301.978,286.085 301.815 C 286.521 301.628,286.584 301.518,286.258 301.518 C 285.972 301.518,285.428 301.652,285.048 301.815 M226.365 306.208 C 226.795 306.291,227.418 306.288,227.748 306.201 C 228.079 306.115,227.727 306.047,226.966 306.051 C 226.206 306.055,225.935 306.126,226.365 306.208 M262.666 306.208 C 263.096 306.291,263.718 306.288,264.049 306.201 C 264.380 306.115,264.028 306.047,263.267 306.051 C 262.506 306.055,262.236 306.126,262.666 306.208 M233.449 306.893 C 233.781 306.980,234.326 306.980,234.659 306.893 C 234.991 306.806,234.719 306.735,234.054 306.735 C 233.388 306.735,233.116 306.806,233.449 306.893 M255.575 306.893 C 255.908 306.980,256.452 306.980,256.785 306.893 C 257.118 306.806,256.845 306.735,256.180 306.735 C 255.514 306.735,255.242 306.806,255.575 306.893 M242.610 307.258 C 243.989 307.323,246.245 307.323,247.623 307.258 C 249.002 307.192,247.874 307.138,245.117 307.138 C 242.360 307.138,241.232 307.192,242.610 307.258 " stroke="none" fill="#839cd3" fill-rule="evenodd"></path><path id="path1" d="M0.000 172.861 L 0.000 345.722 200.000 345.722 L 400.000 345.722 400.000 172.861 L 400.000 0.000 200.000 0.000 L 0.000 0.000 0.000 172.861 M261.193 1.508 C 267.264 2.137,271.955 2.928,279.862 4.656 C 282.901 5.320,287.708 6.565,288.505 6.894 C 288.885 7.051,291.180 7.815,293.605 8.592 C 298.271 10.087,301.549 11.318,304.441 12.664 C 305.410 13.114,306.307 13.483,306.435 13.483 C 306.821 13.483,316.318 18.202,319.274 19.862 C 320.795 20.716,322.584 21.719,323.250 22.089 C 335.975 29.177,354.779 45.426,363.872 57.190 C 364.443 57.929,365.544 59.325,366.320 60.295 C 367.942 62.320,372.342 68.379,372.342 68.586 C 372.342 68.663,373.166 69.948,374.173 71.441 C 377.903 76.975,386.507 93.370,386.519 94.966 C 386.520 95.120,386.769 95.713,387.072 96.283 C 387.375 96.854,387.830 97.943,388.084 98.704 C 388.338 99.464,388.957 101.175,389.459 102.506 C 392.424 110.365,395.811 124.021,396.875 132.411 C 397.056 133.838,397.395 136.093,397.630 137.424 C 398.336 141.434,398.250 167.237,397.515 171.824 C 397.195 173.820,396.838 176.232,396.721 177.182 C 396.257 180.963,394.323 190.189,393.025 194.814 C 392.144 197.951,389.344 206.614,388.778 207.952 C 388.537 208.522,387.903 210.156,387.370 211.582 C 386.032 215.161,381.185 225.146,378.427 230.004 C 370.252 244.403,360.402 256.584,346.894 268.998 C 342.482 273.053,330.996 281.567,325.146 285.118 C 320.390 288.006,313.205 291.798,308.384 293.967 C 307.338 294.437,305.752 295.151,304.859 295.553 C 303.966 295.955,303.111 296.284,302.958 296.286 C 302.805 296.287,302.267 296.503,301.762 296.766 C 301.258 297.030,300.246 297.428,299.515 297.653 C 298.783 297.877,297.874 298.205,297.494 298.382 C 293.702 300.145,279.482 303.963,272.602 305.066 C 270.890 305.340,269.257 305.653,268.971 305.762 C 268.176 306.064,258.464 306.981,251.457 307.415 C 243.997 307.877,223.943 306.780,221.262 305.764 C 220.977 305.655,219.032 305.272,216.940 304.911 C 212.373 304.122,208.962 303.395,206.396 302.661 C 199.125 300.581,193.598 298.796,193.165 298.387 C 193.018 298.249,193.368 297.291,193.942 296.259 C 201.420 282.819,205.290 271.073,207.090 256.353 C 209.119 239.760,206.615 221.062,200.332 205.877 C 198.443 201.312,197.476 199.312,194.156 193.104 C 188.685 182.876,176.191 168.862,166.119 161.658 C 157.989 155.842,150.228 151.566,142.264 148.514 C 140.933 148.004,139.533 147.453,139.153 147.289 C 135.780 145.836,123.871 142.914,118.755 142.284 C 109.637 141.162,101.607 141.045,94.243 141.926 L 92.549 142.129 92.778 138.867 C 93.043 135.094,94.536 125.229,95.266 122.427 C 95.540 121.373,95.765 120.251,95.765 119.932 C 95.765 119.614,95.991 118.597,96.268 117.672 C 96.544 116.746,97.256 114.201,97.850 112.014 C 98.902 108.141,99.679 105.692,100.976 102.161 C 102.684 97.513,103.468 95.564,103.752 95.264 C 103.922 95.083,104.062 94.733,104.062 94.487 C 104.062 93.505,108.333 84.747,111.784 78.652 C 115.351 72.351,120.685 64.281,124.010 60.156 C 124.240 59.870,125.174 58.701,126.086 57.556 C 132.909 48.994,144.373 37.904,152.982 31.537 C 162.662 24.378,171.282 19.279,182.368 14.152 C 185.582 12.666,191.140 10.372,191.526 10.372 C 191.756 10.372,192.434 10.148,193.033 9.875 C 195.774 8.624,206.622 5.416,211.927 4.287 C 217.452 3.112,221.633 2.434,226.621 1.906 C 229.473 1.604,232.818 1.223,234.054 1.059 C 237.674 0.580,254.997 0.866,261.193 1.508 M115.298 149.495 C 160.531 157.120,192.740 189.220,199.530 233.442 C 205.900 274.935,180.935 319.415,141.919 336.085 C 140.588 336.654,139.188 337.258,138.807 337.427 C 129.083 341.747,112.709 345.030,100.887 345.030 C 91.422 345.030,72.959 341.658,66.897 338.822 C 66.517 338.644,65.035 338.042,63.605 337.485 C 56.753 334.814,49.659 330.891,42.052 325.565 C 3.820 298.797,-9.192 246.338,11.763 203.457 C 14.108 198.657,14.577 197.848,18.243 192.274 C 34.149 168.091,60.798 152.401,91.962 148.870 C 95.295 148.492,112.003 148.940,115.298 149.495 " stroke="none" fill="#ffffff00" fill-rule="evenodd"></path><path id="path2" d="M235.782 1.404 C 226.045 2.023,212.878 4.147,205.877 6.229 C 205.307 6.399,203.440 6.945,201.729 7.444 C 159.502 19.748,123.349 51.511,105.531 91.962 C 105.154 92.818,104.581 94.107,104.259 94.827 C 103.534 96.445,101.578 101.637,100.389 105.099 C 96.942 115.140,94.100 128.591,93.229 138.980 L 93.041 141.227 104.170 141.232 C 115.381 141.237,115.998 141.284,123.941 142.755 C 182.260 153.557,219.264 211.399,205.130 269.663 C 203.076 278.128,197.164 292.589,193.784 297.416 C 193.317 298.082,193.404 298.154,195.610 298.929 C 237.214 313.533,289.269 307.811,324.978 284.707 C 330.208 281.324,333.489 279.158,333.946 278.786 C 334.243 278.545,336.041 277.187,337.943 275.768 C 348.304 268.040,361.743 254.318,368.642 244.425 C 375.948 233.949,381.411 224.434,385.119 215.730 C 385.727 214.304,386.429 212.671,386.680 212.100 C 390.103 204.315,394.646 188.316,395.859 179.775 C 396.061 178.349,396.447 175.782,396.716 174.071 C 398.264 164.215,398.268 144.653,396.723 134.486 C 396.449 132.679,396.123 130.424,395.999 129.473 C 395.591 126.335,393.350 116.203,392.215 112.360 C 390.544 106.705,387.845 98.923,386.519 95.938 C 386.350 95.557,385.715 94.080,385.109 92.653 C 378.708 77.608,367.594 60.964,355.644 48.525 C 342.520 34.863,328.890 24.892,312.014 16.604 C 309.352 15.297,306.162 13.812,304.927 13.304 C 303.691 12.796,302.213 12.169,301.642 11.910 C 300.343 11.321,298.772 10.766,292.481 8.674 C 274.781 2.788,254.637 0.205,235.782 1.404 " stroke="none" fill="#335ca3" fill-rule="evenodd"></path><path id="path3" d="M243.129 0.947 C 244.222 1.016,246.011 1.016,247.105 0.947 C 248.198 0.878,247.303 0.822,245.117 0.822 C 242.930 0.822,242.035 0.878,243.129 0.947 M140.865 41.919 L 139.499 43.388 140.968 42.021 C 141.776 41.270,142.437 40.609,142.437 40.552 C 142.437 40.291,142.136 40.552,140.865 41.919 M398.020 146.932 C 398.020 147.787,398.087 148.137,398.170 147.710 C 398.252 147.282,398.252 146.582,398.170 146.154 C 398.087 145.726,398.020 146.076,398.020 146.932 M98.271 148.917 C 99.745 148.982,102.156 148.982,103.630 148.917 C 105.104 148.853,103.898 148.799,100.951 148.799 C 98.003 148.799,96.798 148.853,98.271 148.917 M92.571 149.251 C 93.001 149.333,93.623 149.330,93.954 149.244 C 94.284 149.157,93.933 149.089,93.172 149.093 C 92.411 149.097,92.141 149.168,92.571 149.251 M108.124 149.250 C 108.552 149.332,109.252 149.332,109.680 149.250 C 110.108 149.168,109.758 149.100,108.902 149.100 C 108.047 149.100,107.697 149.168,108.124 149.250 M124.460 151.772 C 125.642 152.150,126.551 152.150,125.670 151.772 C 125.290 151.608,124.667 151.479,124.287 151.485 C 123.731 151.493,123.765 151.549,124.460 151.772 M398.006 161.452 C 398.006 162.118,398.077 162.390,398.164 162.057 C 398.251 161.724,398.251 161.180,398.164 160.847 C 398.077 160.514,398.006 160.787,398.006 161.452 M40.622 168.915 L 39.585 169.806 40.709 169.063 C 41.327 168.654,41.832 168.252,41.832 168.170 C 41.832 167.911,41.686 168.001,40.622 168.915 M33.349 175.022 L 31.634 176.837 33.449 175.121 C 34.447 174.177,35.264 173.361,35.264 173.306 C 35.264 173.048,34.943 173.335,33.349 175.022 M27.117 181.245 L 26.102 182.368 27.226 181.353 C 28.273 180.406,28.508 180.121,28.241 180.121 C 28.182 180.121,27.676 180.627,27.117 181.245 M3.284 229.213 C 3.152 230.000,3.115 230.715,3.204 230.804 C 3.293 230.893,3.469 230.317,3.596 229.525 C 3.722 228.732,3.758 228.017,3.676 227.934 C 3.593 227.852,3.417 228.427,3.284 229.213 M2.168 238.548 C 2.168 239.404,2.236 239.754,2.318 239.326 C 2.401 238.898,2.401 238.198,2.318 237.770 C 2.236 237.342,2.168 237.692,2.168 238.548 M207.859 239.931 C 207.859 240.596,207.930 240.869,208.017 240.536 C 208.104 240.203,208.104 239.659,208.017 239.326 C 207.930 238.993,207.859 239.265,207.859 239.931 M199.970 246.672 C 199.970 250.095,200.022 251.448,200.085 249.680 C 200.148 247.912,200.148 245.111,200.084 243.457 C 200.021 241.803,199.970 243.250,199.970 246.672 M1.869 246.672 C 1.869 249.715,1.922 250.913,1.986 249.335 C 2.050 247.758,2.050 245.268,1.985 243.804 C 1.921 242.339,1.868 243.630,1.869 246.672 M2.162 254.624 C 2.165 255.385,2.236 255.655,2.319 255.225 C 2.402 254.795,2.398 254.173,2.312 253.842 C 2.225 253.512,2.158 253.863,2.162 254.624 M4.553 269.490 C 4.548 269.870,4.677 270.493,4.840 270.873 C 5.219 271.754,5.219 270.845,4.840 269.663 C 4.618 268.968,4.561 268.934,4.553 269.490 M10.050 285.739 C 10.050 285.929,10.273 286.474,10.545 286.949 C 10.816 287.424,11.039 287.658,11.039 287.468 C 11.039 287.277,10.816 286.733,10.545 286.258 C 10.273 285.782,10.050 285.549,10.050 285.739 M238.466 307.245 C 238.896 307.328,239.518 307.325,239.848 307.238 C 240.179 307.152,239.827 307.084,239.067 307.088 C 238.306 307.092,238.036 307.163,238.466 307.245 M250.566 307.245 C 250.996 307.328,251.618 307.325,251.949 307.238 C 252.279 307.152,251.927 307.084,251.167 307.088 C 250.406 307.092,250.136 307.163,250.566 307.245 M176.469 309.853 L 175.454 310.977 176.577 309.961 C 177.195 309.403,177.701 308.897,177.701 308.838 C 177.701 308.571,177.416 308.806,176.469 309.853 M24.892 309.529 C 24.892 309.589,25.398 310.094,26.016 310.653 L 27.139 311.668 26.124 310.545 C 25.177 309.497,24.892 309.262,24.892 309.529 M171.126 315.557 L 167.502 319.274 171.219 315.650 C 173.263 313.657,174.935 311.985,174.935 311.934 C 174.935 311.684,174.492 312.106,171.126 315.557 M28.522 313.570 C 29.265 314.330,29.950 314.952,30.045 314.952 C 30.140 314.952,29.610 314.330,28.868 313.570 C 28.125 312.809,27.440 312.187,27.345 312.187 C 27.249 312.187,27.779 312.809,28.522 313.570 M31.792 316.768 C 33.225 318.294,33.535 318.568,33.535 318.309 C 33.535 318.253,32.796 317.514,31.893 316.667 L 30.251 315.125 31.792 316.768 M79.343 342.264 C 79.723 342.428,80.268 342.562,80.553 342.562 C 80.880 342.562,80.816 342.452,80.380 342.264 C 80.000 342.101,79.455 341.967,79.170 341.967 C 78.843 341.967,78.907 342.077,79.343 342.264 M121.694 342.264 C 120.999 342.487,120.965 342.543,121.521 342.551 C 121.901 342.557,122.524 342.428,122.904 342.264 C 123.785 341.886,122.876 341.886,121.694 342.264 M88.245 343.886 C 88.578 343.973,89.123 343.973,89.455 343.886 C 89.788 343.799,89.516 343.728,88.850 343.728 C 88.185 343.728,87.913 343.799,88.245 343.886 M112.623 343.892 C 113.053 343.975,113.675 343.971,114.006 343.885 C 114.336 343.798,113.984 343.731,113.224 343.735 C 112.463 343.738,112.193 343.809,112.623 343.892 M96.889 344.591 C 97.602 344.665,98.768 344.665,99.481 344.591 C 100.194 344.516,99.611 344.455,98.185 344.455 C 96.759 344.455,96.175 344.516,96.889 344.591 M102.766 344.591 C 103.479 344.665,104.646 344.665,105.359 344.591 C 106.072 344.516,105.488 344.455,104.062 344.455 C 102.636 344.455,102.053 344.516,102.766 344.591 " stroke="none" fill="#aec0dd" fill-rule="evenodd"></path><path id="path4" d="M237.434 0.945 C 238.247 1.018,239.491 1.017,240.199 0.943 C 240.907 0.868,240.242 0.809,238.721 0.810 C 237.200 0.811,236.620 0.872,237.434 0.945 M250.216 0.945 C 251.024 1.017,252.347 1.017,253.155 0.945 C 253.963 0.872,253.302 0.812,251.685 0.812 C 250.069 0.812,249.408 0.872,250.216 0.945 M136.899 45.549 L 133.621 48.920 136.992 45.642 C 140.123 42.598,140.520 42.178,140.270 42.178 C 140.218 42.178,138.702 43.695,136.899 45.549 M349.870 42.273 C 349.870 42.325,351.076 43.531,352.550 44.952 L 355.229 47.537 352.645 44.857 C 350.245 42.369,349.870 42.020,349.870 42.273 M397.314 136.906 C 397.314 137.571,397.386 137.844,397.473 137.511 C 397.559 137.178,397.559 136.634,397.473 136.301 C 397.386 135.968,397.314 136.240,397.314 136.906 M397.660 139.672 C 397.660 140.337,397.731 140.609,397.818 140.277 C 397.905 139.944,397.905 139.399,397.818 139.067 C 397.731 138.734,397.660 139.006,397.660 139.672 M100.691 141.302 C 101.214 141.381,102.070 141.381,102.593 141.302 C 103.116 141.223,102.688 141.158,101.642 141.158 C 100.596 141.158,100.169 141.223,100.691 141.302 M106.742 141.298 C 107.169 141.381,107.869 141.381,108.297 141.298 C 108.725 141.216,108.375 141.149,107.519 141.149 C 106.664 141.149,106.314 141.216,106.742 141.298 M95.856 141.648 C 96.382 141.728,97.159 141.726,97.585 141.644 C 98.010 141.561,97.580 141.496,96.629 141.499 C 95.678 141.502,95.331 141.569,95.856 141.648 M111.409 141.648 C 111.932 141.727,112.787 141.727,113.310 141.648 C 113.833 141.569,113.405 141.504,112.360 141.504 C 111.314 141.504,110.886 141.569,111.409 141.648 M93.604 148.904 C 94.032 148.987,94.732 148.987,95.160 148.904 C 95.588 148.822,95.238 148.754,94.382 148.754 C 93.526 148.754,93.176 148.822,93.604 148.904 M106.919 148.908 C 107.445 148.988,108.223 148.986,108.648 148.904 C 109.073 148.822,108.643 148.757,107.692 148.759 C 106.742 148.762,106.394 148.829,106.919 148.908 M89.801 149.250 C 90.229 149.332,90.929 149.332,91.357 149.250 C 91.785 149.168,91.435 149.100,90.579 149.100 C 89.723 149.100,89.373 149.168,89.801 149.250 M110.890 149.250 C 111.318 149.332,112.018 149.332,112.446 149.250 C 112.874 149.168,112.524 149.100,111.668 149.100 C 110.812 149.100,110.462 149.168,110.890 149.250 M126.707 152.118 C 127.087 152.281,127.632 152.415,127.917 152.415 C 128.244 152.415,128.180 152.305,127.744 152.118 C 127.364 151.954,126.819 151.820,126.534 151.820 C 126.207 151.820,126.271 151.930,126.707 152.118 M69.663 153.500 C 69.227 153.688,69.163 153.798,69.490 153.798 C 69.775 153.798,70.320 153.664,70.700 153.500 C 71.136 153.313,71.200 153.203,70.873 153.203 C 70.588 153.203,70.043 153.337,69.663 153.500 M50.427 162.164 L 49.611 162.876 50.648 162.269 C 52.013 161.469,52.034 161.452,51.608 161.452 C 51.408 161.452,50.876 161.772,50.427 162.164 M398.006 163.526 C 398.006 164.192,398.077 164.464,398.164 164.131 C 398.251 163.799,398.251 163.254,398.164 162.921 C 398.077 162.589,398.006 162.861,398.006 163.526 M172.169 166.400 C 172.169 166.460,172.675 166.965,173.293 167.524 L 174.417 168.539 173.401 167.416 C 172.455 166.368,172.169 166.133,172.169 166.400 M397.660 168.712 C 397.660 169.378,397.731 169.650,397.818 169.317 C 397.905 168.984,397.905 168.440,397.818 168.107 C 397.731 167.774,397.660 168.047,397.660 168.712 M160.539 168.288 C 160.813 168.730,162.835 170.227,162.835 169.987 C 162.835 169.901,162.264 169.396,161.566 168.863 C 160.868 168.331,160.406 168.072,160.539 168.288 M178.047 171.997 C 178.692 172.662,179.297 173.207,179.392 173.207 C 179.487 173.207,179.037 172.662,178.392 171.997 C 177.747 171.331,177.142 170.787,177.047 170.787 C 176.952 170.787,177.402 171.331,178.047 171.997 M165.946 172.688 C 166.591 173.354,167.197 173.898,167.292 173.898 C 167.387 173.898,166.937 173.354,166.292 172.688 C 165.647 172.022,165.042 171.478,164.946 171.478 C 164.851 171.478,165.301 172.022,165.946 172.688 M30.061 177.960 C 26.816 181.271,22.929 185.519,24.921 183.578 C 26.782 181.764,34.317 173.898,34.193 173.898 C 34.111 173.898,32.251 175.726,30.061 177.960 M171.651 178.047 C 173.927 180.328,175.866 182.195,175.962 182.195 C 176.057 182.195,174.272 180.328,171.997 178.047 C 169.721 175.765,167.781 173.898,167.686 173.898 C 167.591 173.898,169.375 175.765,171.651 178.047 M181.158 175.389 C 181.158 175.449,181.664 175.954,182.282 176.513 L 183.405 177.528 182.390 176.404 C 181.443 175.357,181.158 175.122,181.158 175.389 M14.693 197.753 C 14.398 198.323,14.235 198.790,14.330 198.790 C 14.425 198.790,14.744 198.323,15.039 197.753 C 15.334 197.182,15.497 196.716,15.402 196.716 C 15.307 196.716,14.988 197.182,14.693 197.753 M12.273 202.247 C 11.978 202.818,11.815 203.284,11.910 203.284 C 12.005 203.284,12.324 202.818,12.619 202.247 C 12.914 201.677,13.077 201.210,12.982 201.210 C 12.887 201.210,12.568 201.677,12.273 202.247 M9.391 208.312 C 8.811 209.583,8.922 209.855,9.548 208.699 C 9.841 208.159,10.015 207.653,9.936 207.574 C 9.857 207.495,9.612 207.827,9.391 208.312 M3.630 226.448 C 3.499 227.045,3.463 227.606,3.552 227.694 C 3.640 227.783,3.811 227.358,3.933 226.750 C 4.221 225.309,3.941 225.030,3.630 226.448 M199.562 235.436 C 199.562 236.102,199.633 236.374,199.720 236.041 C 199.807 235.709,199.807 235.164,199.720 234.831 C 199.633 234.499,199.562 234.771,199.562 235.436 M2.162 235.955 C 2.165 236.716,2.236 236.986,2.319 236.556 C 2.402 236.126,2.398 235.504,2.312 235.173 C 2.225 234.843,2.158 235.194,2.162 235.955 M207.520 235.955 C 207.524 236.716,207.595 236.986,207.678 236.556 C 207.760 236.126,207.757 235.504,207.671 235.173 C 207.584 234.843,207.516 235.194,207.520 235.955 M199.931 238.894 C 199.931 239.939,199.996 240.367,200.075 239.844 C 200.154 239.322,200.154 238.466,200.075 237.943 C 199.996 237.420,199.931 237.848,199.931 238.894 M1.827 239.758 C 1.830 240.709,1.897 241.057,1.977 240.531 C 2.056 240.006,2.054 239.228,1.972 238.803 C 1.890 238.377,1.825 238.807,1.827 239.758 M207.908 244.598 C 207.909 246.690,207.966 247.501,208.035 246.401 C 208.103 245.300,208.103 243.589,208.033 242.598 C 207.964 241.606,207.907 242.506,207.908 244.598 M200.309 246.672 C 200.310 249.334,200.364 250.378,200.430 248.991 C 200.496 247.604,200.495 245.426,200.429 244.151 C 200.363 242.876,200.309 244.010,200.309 246.672 M1.823 253.414 C 1.823 254.270,1.890 254.620,1.973 254.192 C 2.055 253.764,2.055 253.064,1.973 252.636 C 1.890 252.208,1.823 252.558,1.823 253.414 M207.513 253.068 C 207.513 253.734,207.584 254.006,207.671 253.673 C 207.758 253.341,207.758 252.796,207.671 252.463 C 207.584 252.131,207.513 252.403,207.513 253.068 M199.931 254.451 C 199.931 255.497,199.996 255.925,200.075 255.402 C 200.154 254.879,200.154 254.023,200.075 253.500 C 199.996 252.978,199.931 253.405,199.931 254.451 M2.168 257.217 C 2.168 258.073,2.236 258.423,2.318 257.995 C 2.401 257.567,2.401 256.867,2.318 256.439 C 2.236 256.011,2.168 256.361,2.168 257.217 M199.562 257.908 C 199.562 258.574,199.633 258.846,199.720 258.513 C 199.807 258.181,199.807 257.636,199.720 257.303 C 199.633 256.971,199.562 257.243,199.562 257.908 M355.392 260.588 L 353.155 262.921 355.488 260.684 C 357.656 258.606,357.980 258.254,357.726 258.254 C 357.673 258.254,356.622 259.304,355.392 260.588 M195.371 276.616 C 195.158 277.227,195.044 277.787,195.118 277.861 C 195.192 277.935,195.427 277.496,195.640 276.885 C 195.853 276.274,195.967 275.713,195.893 275.639 C 195.819 275.565,195.584 276.005,195.371 276.616 M190.895 287.828 C 190.315 289.099,190.426 289.371,191.052 288.215 C 191.345 287.675,191.519 287.169,191.440 287.090 C 191.361 287.011,191.116 287.343,190.895 287.828 M189.628 290.406 C 189.333 290.977,189.170 291.443,189.265 291.443 C 189.360 291.443,189.679 290.977,189.974 290.406 C 190.269 289.836,190.433 289.369,190.338 289.369 C 190.242 289.369,189.923 289.836,189.628 290.406 M187.167 294.987 C 185.977 297.006,185.900 297.178,186.506 296.456 C 187.208 295.620,187.813 294.555,187.587 294.555 C 187.496 294.555,187.307 294.749,187.167 294.987 M180.812 304.581 C 180.406 305.151,180.152 305.618,180.247 305.618 C 180.342 305.618,180.752 305.151,181.158 304.581 C 181.564 304.010,181.819 303.544,181.724 303.544 C 181.629 303.544,181.219 304.010,180.812 304.581 M234.659 307.251 C 235.277 307.328,236.288 307.328,236.906 307.251 C 237.524 307.174,237.018 307.112,235.782 307.112 C 234.546 307.112,234.041 307.174,234.659 307.251 M253.334 307.251 C 253.955 307.328,254.889 307.327,255.408 307.248 C 255.928 307.169,255.419 307.106,254.278 307.108 C 253.137 307.110,252.712 307.174,253.334 307.251 M242.437 307.604 C 243.911 307.668,246.322 307.668,247.796 307.604 C 249.270 307.539,248.064 307.486,245.117 307.486 C 242.169 307.486,240.964 307.539,242.437 307.604 M175.954 310.717 L 174.762 312.014 176.059 310.822 C 177.265 309.713,177.514 309.421,177.250 309.421 C 177.192 309.421,176.609 310.004,175.954 310.717 M25.929 310.977 C 26.574 311.642,27.180 312.187,27.275 312.187 C 27.370 312.187,26.920 311.642,26.275 310.977 C 25.630 310.311,25.024 309.767,24.929 309.767 C 24.834 309.767,25.284 310.311,25.929 310.977 M170.775 316.249 L 168.885 318.237 170.873 316.347 C 171.966 315.308,172.861 314.413,172.861 314.359 C 172.861 314.103,172.530 314.402,170.775 316.249 M33.535 318.518 C 33.535 318.577,34.041 319.083,34.659 319.641 L 35.782 320.657 34.767 319.533 C 33.820 318.486,33.535 318.251,33.535 318.518 M40.075 324.067 C 40.536 324.634,41.832 325.491,41.832 325.228 C 41.832 325.162,41.327 324.738,40.709 324.286 C 40.013 323.777,39.772 323.693,40.075 324.067 M56.353 334.137 C 56.353 334.373,58.469 335.423,58.628 335.265 C 58.703 335.190,58.221 334.870,57.558 334.553 C 56.895 334.237,56.353 334.050,56.353 334.137 M76.923 341.919 C 77.303 342.082,77.926 342.211,78.306 342.206 C 78.862 342.198,78.828 342.141,78.133 341.919 C 76.951 341.540,76.042 341.540,76.923 341.919 M124.114 341.919 C 123.419 342.141,123.385 342.198,123.941 342.206 C 124.322 342.211,124.944 342.082,125.324 341.919 C 126.205 341.540,125.296 341.540,124.114 341.919 M117.373 343.302 C 116.441 343.539,116.423 343.566,117.200 343.572 C 117.675 343.576,118.453 343.454,118.928 343.302 C 120.090 342.930,118.835 342.930,117.373 343.302 M93.954 344.583 C 94.384 344.666,95.006 344.663,95.337 344.576 C 95.667 344.490,95.315 344.422,94.555 344.426 C 93.794 344.430,93.524 344.501,93.954 344.583 M107.091 344.583 C 107.521 344.666,108.144 344.663,108.474 344.576 C 108.805 344.490,108.453 344.422,107.692 344.426 C 106.932 344.430,106.661 344.501,107.091 344.583 M98.790 344.941 C 99.978 345.008,101.923 345.008,103.111 344.941 C 104.300 344.873,103.328 344.818,100.951 344.818 C 98.574 344.818,97.602 344.873,98.790 344.941 " stroke="none" fill="#c4cce5" fill-rule="evenodd"></path></g></svg>
